# xmcd
#
# Track frame offsets:
#	150
#	12187
#	26870
#	39417
#	51031
#	63109
#	73192
#	90148
#	100176
#	113134
#	129916
#	142574
#	155884
#	166572
#
# Disc length: 2418
#
# Revision: 2
# Processed by: cddbd v1.5.1PL0 Copyright (c) Steve Scherf et al.
# Submitted via: EasyCDDAExtractor 5.0.0.0
# Normalized: r0:DSETVAR1,TSWAP
#
DISCID=a309700e
DTITLE=Various Artist - Country Gospel  CD2
DYEAR=1900
DGENRE=Country
TTITLE0=Glen Campbell - My prayer
TTITLE1=Lee Greenwood - God bless the USA
TTITLE2=Slim Whitman - Lord help me be as thou
TTITLE3=Wanda Jackson - I may never get to heaven
TTITLE4=Johnny Cash - You're the nearest thing to heaven
TTITLE5=Tennessee Ernie Ford - When God dips his love in my heart
TTITLE6=Roy Acuff and The Nitty Gritty Dirt Band - I saw the light
TTITLE7=Sonny James - True love's a blessing
TTITLE8=Slim Whitman - Stairway to heaven
TTITLE9=J.J. Barrie - No charge
TTITLE10=Patsy Cline - Just a closer walk with thee
TTITLE11=Tennessee Ernie Ford - Just a little talk with Jesus
TTITLE12=The Jordanaires - Swing low sweet chariot
TTITLE13=Billie Jo Spears - I believe
EXTD=
EXTT0=
EXTT1=
EXTT2=
EXTT3=
EXTT4=
EXTT5=
EXTT6=
EXTT7=
EXTT8=
EXTT9=
EXTT10=
EXTT11=
EXTT12=
EXTT13=
PLAYORDER=
